<?xml version="1.0" encoding="UTF-8"?>
<svg width="200px" height="200px" viewBox="0 0 200 200" version="1.1" xmlns="http://www.w3.org/2000/svg" xmlns:xlink="http://www.w3.org/1999/xlink">
    <!-- Generator: Sketch 53.2 (72643) - https://sketchapp.com -->
    <title>感叹号</title>
    <desc>Created with Sketch.</desc>
    <g id="夜伴(素聊)-app-" stroke="none" stroke-width="1" fill="none" fill-rule="evenodd">
        <g id="支付失败---未知状态" transform="translate(-275.000000, -317.000000)">
            <g id="感叹号" transform="translate(275.000000, 317.000000)">
                <rect id="矩形" fill="#F95050" x="0" y="0" width="200" height="200" rx="100"></rect>
                <path d="M88,45 L110.451613,45 L107.918435,121.07311 L105.065239,121.07311 L105.065239,123.848276 L93.6506582,123.848276 L93.6506582,121.627444 L90.7974623,121.627444 L88,45 Z M88.7741935,144.51724 L88.7741935,144.517241 C88.7741945,150.858999 93.9734736,156 100.387097,156 C106.800731,155.999999 112,150.858988 112,144.517241 L112,144.517241 C112,138.175484 106.800731,133.034483 100.387097,133.034483 C93.9734625,133.034483 88.7741935,138.175484 88.7741935,144.517241 C88.7741935,144.517241 88.7741935,144.517242 88.7741935,144.517242 L88.7741935,144.51724 Z" id="形状" fill="#FFFFFF" fill-rule="nonzero"></path>
            </g>
        </g>
    </g>
</svg>